# xmcd
#
# Track frame offsets:
#	150
#	15204
#	31207
#	55486
#	76320
#	90817
#	116507
#	132664
#	151612
#	176653
#	193410
#	208380
#	219470
#	236534
#	254632
#	269192
#	301054
#
# Disc length: 4041 seconds
#
# Revision: 0
# Processed by: cddbd v1.5.2PL0 Copyright (c) Steve Scherf et al.
# Submitted via: EasyCDDAExtractor 15.2.1.1
#
DISCID=ec0fc711
DTITLE=Various Artist - Notre-Dame De Paris
DYEAR=1997
DGENRE=Pop
TTITLE0=Bruno Pelletier - Le Temps Des Cathédrales (Gringoire)
TTITLE1=Luck Mervil - Les Sans-Papiers (Clopin)
TTITLE2=Noa - Bohémienne (Esmeralda)
TTITLE3=Garou, Daniel Lavoie and Patrick Fiori - Belle (Quasimodo Frollo Phoebus
TTITLE3=)
TTITLE4=Daniel Lavoie - Tu Vas Me Détruire (Frollo)
TTITLE5=Luck Mervil - Les Cour Des Miracles (Clopin)
TTITLE6=Noa - Ave Maria Païen (Esmeralda)
TTITLE7=Daniel Lavoie and Bruno Pelletier - Florence (Frollo Gringoire)
TTITLE8=Bruno Pelletier, Daniel Lavoie and Garou - Les Cloches (Gringoire Frollo
TTITLE8=Quasimodo)
TTITLE9=Daniel Lavoie - Etre Prêtre Et Aimer Une Femme (Frollo)
TTITLE10=Patrick Fiori - Déchiré (Phoebus)
TTITLE11=Julie Zenatti - La Monture (Fleur De Lys
TTITLE12=Garou - Dieu Que Le Monde Est Injuste (Quasimodo)
TTITLE13=Noa - Vivre (Esmeralda)
TTITLE14=Bruno Pelletier - Lune (Gringoire)
TTITLE15=Garou - Danse Mon Esmeralda (Quasimodo)
TTITLE16=Various Artist - Data
EXTD=
EXTT0=
EXTT1=
EXTT2=
EXTT3=
EXTT4=
EXTT5=
EXTT6=
EXTT7=
EXTT8=
EXTT9=
EXTT10=
EXTT11=
EXTT12=
EXTT13=
EXTT14=
EXTT15=
EXTT16=
PLAYORDER=
